<svg xmlns="http://www.w3.org/2000/svg" viewBox="0 0 24 24"><path fill-rule="evenodd" d="M5 4a1 1 0 0 0-1 1v8a1 1 0 0 0 1 1h3v-3a3 3 0 0 1 3-3h3V5a1 1 0 0 0-1-1H5zm11 4V5a3 3 0 0 0-3-3H5a3 3 0 0 0-3 3v8a3 3 0 0 0 3 3h3v3a3 3 0 0 0 3 3h8a3 3 0 0 0 3-3v-8a3 3 0 0 0-3-3h-3zm-5 2a1 1 0 0 0-1 1v8a1 1 0 0 0 1 1h8a1 1 0 0 0 1-1v-8a1 1 0 0 0-1-1h-8z" clip-rule="evenodd"/><path d="M17.667 13.249a1 1 0 0 0-1.411.09l-1.872 2.152-.63-.711a1.004 1.004 0 0 0-1.501 1.331l1.39 1.561a1.002 1.002 0 0 0 1.158.24c.127-.06.241-.144.334-.25l2.612-3.002a1 1 0 0 0-.08-1.411z"/></svg>