<svg xmlns="http://www.w3.org/2000/svg" viewBox="0 0 24 24"><path d="M3 22a1 1 0 0 1 1-1h16a1 1 0 1 1 0 2H4a1 1 0 0 1-1-1z"/><path fill-rule="evenodd" d="M16.707 3.121a1 1 0 0 0-1.414 0L14.414 4 18 7.585l.879-.878a1 1 0 0 0 0-1.414L16.707 3.12zM6.914 11.5L13 5.414 16.586 9 10.5 15.085 6.914 11.5zM5.5 12.914l-.5.5V17h3.586l.5-.5L5.5 12.914zm8.379-11.207a3 3 0 0 1 4.242 0l2.172 2.171a3 3 0 0 1 0 4.243L10 18.414A2 2 0 0 1 8.586 19H5a2 2 0 0 1-2-2v-3.586A2 2 0 0 1 3.586 12L13.879 1.707z" clip-rule="evenodd"/></svg>