<svg xmlns="http://www.w3.org/2000/svg" viewBox="0 0 24 24"><path d="M6 20a1 1 0 0 1 1-1h14a1 1 0 1 1 0 2H7a1 1 0 0 1-1-1z"/><path fill-rule="evenodd" d="M20.878 6.879L17.121 3.12a3 3 0 0 0-4.243 0L2.121 13.88a3 3 0 0 0 0 4.242l1.707 1.707A4 4 0 0 0 6.656 21h2.687a4 4 0 0 0 2.828-1.172l8.707-8.707a3 3 0 0 0 0-4.242zm-5.171-2.343l3.757 3.757a1 1 0 0 1 0 1.414l-4.379 4.379-5.171-5.172 4.378-4.378a1 1 0 0 1 1.415 0zm-7.293 5.878l-4.879 4.879a1 1 0 0 0 0 1.414l1.707 1.707A2 2 0 0 0 6.656 19h2.687a2 2 0 0 0 1.414-.586l2.828-2.828-5.171-5.172z" clip-rule="evenodd"/></svg>