<svg xmlns="http://www.w3.org/2000/svg" viewBox="0 0 24 24"><path fill-rule="evenodd" d="M11.992 4.171L12 4.167l.009.005 4.453 2.672L18 7.77V18.8c0 .593-.001.918-.02 1.151l-.003.026-.026.003c-.233.019-.558.02-1.15.02H7.2c-.594 0-.918-.001-1.152-.02l-.026-.003-.002-.026C6 19.718 6 19.393 6 18.801V7.77l1.531-.924 4.46-2.676zm-5.49.962l-5.016 3.01a1 1 0 0 0 1.029 1.715L4 8.966V18.8c0 1.12 0 1.68.218 2.108a2 2 0 0 0 .874.874C5.52 22 6.08 22 7.2 22h9.6c1.12 0 1.68 0 2.108-.218a2 2 0 0 0 .874-.874C20 20.48 20 19.92 20 18.8V8.966l1.486.892a1 1 0 1 0 1.029-1.715L17.493 5.13l-3.841-2.315c-.28-.168-.494-.297-.676-.394a2.006 2.006 0 0 0-.129-.066 1.84 1.84 0 0 0-.416-.153 2 2 0 0 0-.861 0c-.135.03-.267.08-.418.153-.043.02-.085.042-.127.065-.182.097-.396.227-.676.395L6.502 5.133z" clip-rule="evenodd"/><path fill-rule="evenodd" d="M13 20v-4a1 1 0 1 0-2 0v4h2zm-1-7a3 3 0 0 0-3 3v6h6v-6a3 3 0 0 0-3-3z" clip-rule="evenodd"/></svg>