<svg xmlns="http://www.w3.org/2000/svg" viewBox="0 0 24 24"><path fill-rule="evenodd" d="M20 17.5c0-.452-.063-1.091-.154-1.756a.539.539 0 00-.501-.49C17.921 15.133 15.565 15 12 15s-5.92.132-7.345.255a.539.539 0 00-.501.489C4.063 16.409 4 17.048 4 17.5c0 .452.063 1.091.154 1.756.039.287.239.467.501.49C6.079 19.868 8.435 20 12 20s5.92-.131 7.345-.255a.539.539 0 00.501-.489c.091-.665.154-1.304.154-1.756zm1.828-2.028a2.537 2.537 0 00-2.31-2.21C18.026 13.133 15.612 13 12 13s-6.027.133-7.517.262a2.537 2.537 0 00-2.31 2.21C2.077 16.161 2 16.908 2 17.5c0 .592.078 1.34.172 2.028a2.537 2.537 0 002.31 2.21C5.974 21.867 8.388 22 12 22s6.027-.133 7.517-.262a2.537 2.537 0 002.31-2.21c.095-.689.173-1.436.173-2.028 0-.592-.078-1.34-.172-2.028zM20 6.5c0-.452-.063-1.091-.154-1.756a.538.538 0 00-.501-.49C17.921 4.132 15.565 4 12 4s-5.92.131-7.345.255a.539.539 0 00-.501.489C4.063 5.409 4 6.048 4 6.5c0 .452.063 1.091.154 1.756.039.287.239.467.501.49C6.079 8.868 8.435 9 12 9s5.92-.131 7.345-.255a.538.538 0 00.501-.489C19.937 7.591 20 6.952 20 6.5zm1.828-2.028a2.537 2.537 0 00-2.31-2.21C18.026 2.133 15.612 2 12 2s-6.027.133-7.517.262a2.537 2.537 0 00-2.31 2.21C2.077 5.161 2 5.908 2 6.5c0 .592.078 1.34.172 2.028a2.537 2.537 0 002.31 2.21C5.974 10.867 8.388 11 12 11s6.027-.133 7.517-.262a2.537 2.537 0 002.31-2.21C21.923 7.839 22 7.092 22 6.5c0-.592-.078-1.34-.172-2.028z" clip-rule="evenodd"/></svg>