<svg xmlns="http://www.w3.org/2000/svg" viewBox="0 0 194 18"><path d="M2.682 17.028h3.172v-5.54L8.536.21H5.208l-.94 5.697L3.328.21H0l2.682 11.276v5.54zm11.424-1.018c.672.783 1.7 1.174 3.083 1.174 1.384 0 2.411-.391 3.084-1.174.672-.784 1.008-1.945 1.008-3.485V.21h-3.27v12.177c0 .548-.052.969-.156 1.262-.105.294-.327.441-.666.441-.34 0-.561-.15-.666-.45-.104-.3-.156-.718-.156-1.253V.21h-3.27v12.314c0 1.54.336 2.701 1.009 3.485zm12.382 1.018h6.833v-2.859h-3.465V.211h-3.368v16.817zm11.532 0h3.25V.21h-3.25v16.817zm8.066 0h3.269l.196-2.722h2.036l.235 2.722h3.19L53.408.21H47.71l-1.624 16.817zm3.72-5.404l.626-8.555h.156l.744 8.555h-1.527zm19.322 4.425c.679.757 1.782 1.135 3.309 1.135 1.396 0 2.398-.427 3.005-1.282.607-.855.91-2.111.91-3.769 0-.744-.091-1.386-.274-1.928a4.947 4.947 0 0 0-.724-1.41c-.3-.398-.679-.819-1.136-1.262l-1.957-1.88c-.627-.587-.94-1.155-.94-1.703 0-.248.065-.444.196-.587.13-.144.326-.216.587-.216.222 0 .395.065.519.196.124.13.186.307.186.529l.02 1.155h3.425c0-1.71-.332-2.966-.998-3.769C74.59.455 73.5.054 71.986.054c-1.266 0-2.228.375-2.887 1.126-.66.75-.989 1.843-.989 3.279 0 1.331.561 2.545 1.684 3.641l1.449 1.449c.522.51.884.884 1.086 1.126.202.241.369.541.5.9.13.36.195.813.195 1.361 0 .418-.059.714-.176.89-.118.177-.326.265-.627.265-.535 0-.802-.418-.802-1.253v-2.095H68.11v1.645c0 1.683.34 2.904 1.018 3.66zm13.704.979H86.2V3.44h1.997V.21h-7.362v3.23h1.997v13.587zm9.77 0h3.269l.196-2.722h2.036l.235 2.722h3.191L99.924.21h-5.698l-1.624 16.817zm3.72-5.404l.626-8.555h.156l.744 8.555h-1.527zM106.461.211v16.817h3.407V9.353c.483 0 .816.066.998.196.183.13.275.43.275.9v6.579h3.289l.039-6.363c0-.692-.115-1.24-.343-1.645-.228-.404-.597-.659-1.106-.763.613-.209 1.044-.58 1.292-1.116.248-.535.372-1.279.372-2.232 0-1.044-.078-1.902-.235-2.574-.157-.672-.46-1.194-.91-1.566-.451-.372-1.087-.558-1.909-.558h-5.169zm4.229 6.225h-.802V3.323h.783c.195 0 .346.043.45.128.104.084.176.238.215.46.039.222.059.554.059.998 0 1.018-.235 1.527-.705 1.527zm9.995 9.593c.737.77 1.719 1.155 2.946 1.155 2.832 0 4.248-1.41 4.248-4.229V9.785h-3.387v3.034c0 .849-.261 1.273-.783 1.273-.261 0-.457-.101-.587-.303-.131-.203-.196-.526-.196-.97V4.382c0-.405.056-.712.167-.92.111-.21.316-.314.616-.314.287 0 .49.092.607.274.118.183.176.516.176.999v2.486h3.348V4.01c0-1.28-.378-2.258-1.135-2.937-.757-.679-1.756-1.018-2.996-1.018-1.422 0-2.467.424-3.132 1.272-.666.849-.999 2.108-.999 3.779v7.753c0 1.344.369 2.401 1.107 3.171zm12.226.999h3.347V9.392h1.586v7.636h3.348V.21h-3.348v6.01h-1.586V.21h-3.347v16.817zm13.684 0h6.95v-3.27h-3.524V9.901h3.172V6.73h-3.172V3.46h3.309V.21h-6.735v16.818zm11.982 0h3.289V8.609l1.683 8.419h3.29V.21h-3.25v8.046L162.043.21h-3.465v16.817zm13.665 0h3.348V8.883l1.84 8.145h3.485l-2.271-9.123L180.524.21h-3.387l-1.566 6.734V.211h-3.328v16.817zm14.076-1.087c.705.829 1.736 1.243 3.093 1.243 1.358 0 2.389-.41 3.094-1.233.704-.822 1.057-1.99 1.057-3.505V4.44c0-1.448-.353-2.542-1.057-3.279-.705-.737-1.736-1.106-3.094-1.106-1.357 0-2.388.369-3.093 1.106-.705.738-1.057 1.83-1.057 3.28v8.006c0 1.502.352 2.666 1.057 3.495zm3.7-2.242c-.104.261-.306.392-.607.392-.313 0-.528-.124-.646-.372-.117-.248-.176-.613-.176-1.096V4.42c0-.849.281-1.273.842-1.273.3 0 .499.114.597.343.098.228.147.525.147.89v8.223c0 .47-.052.835-.157 1.097z"/></svg>