<svg xmlns="http://www.w3.org/2000/svg" viewBox="0 0 292 64"><path d="M89.382 63.146c1.445.57 3.35.854 5.711.854 2.403 0 4.225-.447 5.467-1.342 1.242-.894 1.863-2.216 1.863-3.965 0-1.443-.463-2.602-1.389-3.476-.927-.874-2.56-1.586-4.903-2.135-1.506-.346-2.647-.686-3.42-1.022-.774-.335-1.329-.737-1.665-1.204-.336-.468-.504-1.078-.504-1.83 0-1.322.484-2.287 1.451-2.897.967-.61 2.398-.915 4.291-.915 1.833 0 3.482.254 4.948.762v-1.494c-.57-.183-1.339-.35-2.306-.503a19.094 19.094 0 00-2.978-.229c-2.341 0-4.103.468-5.284 1.403-1.18.935-1.771 2.226-1.771 3.873 0 1.403.453 2.51 1.359 3.324.906.813 2.469 1.464 4.688 1.952 1.487.325 2.642.666 3.467 1.022.825.355 1.425.798 1.802 1.326.377.529.565 1.21.565 2.044 0 1.362-.478 2.348-1.436 2.958-.956.61-2.412.915-4.367.915-2.057 0-3.92-.305-5.59-.915v1.494zm24.862-17.719v18.268h1.679V45.427h6.781v-1.372h-15.241v1.372h6.781zm17.898-1.372l-7.453 19.64h1.741l2.169-5.733h9.224l2.168 5.733h1.711l-7.422-19.64h-2.138zm5.284 12.534h-8.461l4.215-11.192 4.246 11.192zm11.301-12.534v19.64h1.679v-7.868h4.612c.754 0 1.344.066 1.772.198.428.132.763.33 1.008.595.244.264.478.65.702 1.159l2.596 5.916h1.711l-2.627-6.13c-.285-.61-.534-1.062-.748-1.357-.214-.295-.535-.544-.962-.747 1.425-.264 2.504-.874 3.237-1.83.733-.956 1.1-2.196 1.1-3.72 0-1.85-.479-3.29-1.436-4.316-.957-1.027-2.433-1.54-4.428-1.54h-8.216zm7.727 10.43h-6.048v-9.058h6.414c2.871 0 4.307 1.495 4.307 4.483 0 3.05-1.558 4.575-4.673 4.575zm14.599 6.953C172.56 63.146 174.82 64 177.834 64c2.097 0 3.96-.254 5.589-.762v-1.495a14 14 0 01-2.55.61c-.947.142-1.889.214-2.825.214-5.07 0-7.605-2.715-7.605-8.143 0-2.989.575-5.27 1.725-6.847 1.151-1.575 3.08-2.363 5.788-2.363 1.996 0 3.818.305 5.467.915v-1.495c-1.669-.59-3.543-.884-5.62-.884-3.135 0-5.421.935-6.856 2.806-1.436 1.87-2.154 4.493-2.154 7.868 0 2.968.754 5.306 2.26 7.014zm19.395-17.383v19.64h1.68v-9.15h11.301v9.15h1.68v-19.64h-1.68v9.15h-11.301v-9.15h-1.68zm22.297 0v19.64h12.858v-1.342h-11.178v-7.807h10.109v-1.342h-10.109v-7.777h11.178v-1.372h-12.858zm19.578 0v19.64h1.68V46.586l12.156 17.109h1.618v-19.64h-1.679v17.14l-12.187-17.14h-1.588zm23.09 0v19.64h1.68V56.65l3.513-3.69 6.872 10.735h1.832l-7.666-11.833 7.483-7.807h-2.046l-9.988 10.43v-10.43h-1.68zm20.495 17.414c1.445 1.687 3.665 2.531 6.658 2.531 2.993 0 5.213-.844 6.658-2.531 1.446-1.688 2.169-4.188 2.169-7.502 0-3.518-.713-6.1-2.138-7.747-1.426-1.647-3.655-2.47-6.689-2.47-3.034 0-5.264.823-6.689 2.47-1.425 1.647-2.138 4.23-2.138 7.747 0 3.314.723 5.814 2.169 7.502zm12.049-.991c-1.171 1.392-2.968 2.089-5.391 2.089-2.444 0-4.251-.697-5.421-2.09-1.171-1.392-1.757-3.563-1.757-6.51 0-2.135.26-3.843.779-5.124.519-1.28 1.303-2.206 2.352-2.775 1.049-.57 2.398-.854 4.047-.854 1.649 0 2.993.285 4.032.854 1.038.569 1.817 1.494 2.336 2.775.519 1.28.779 2.989.779 5.123 0 2.948-.585 5.119-1.756 6.512zM93.053 22.664v7.276h6.537v-7.276L106.674 10h-6.81l-3.527 6.936L92.81 10H86l7.053 12.664zm22.909 6.657c1.429.62 3.076.929 4.94.929 1.865 0 3.512-.31 4.941-.929 1.429-.62 2.549-1.538 3.359-2.756.811-1.218 1.217-2.683 1.217-4.396V10h-6.537v11.395c0 2.146-.993 3.22-2.98 3.22-1.986 0-2.979-1.074-2.979-3.22V10h-6.537v12.169c0 1.713.406 3.178 1.216 4.396.811 1.218 1.931 2.137 3.36 2.756zM135.739 10v19.94h14.928v-5.078h-8.391V10h-6.537zm19.184 0v19.94h6.537V10h-6.537zm18.911 0l-7.51 19.94h6.81l1.49-3.963h5.26l1.52 3.963h6.81L180.674 10h-6.84zm5.259 11.333h-3.678l1.824-4.83 1.854 4.83zM57.132 40.253c2.82-1.355 5.178-3.547 6.184-6.51 1.121-3.31.53-7.043-1.202-10.046-.789-1.367-1.449-2.6-1.967-4.104-.59-1.705-1.062-3.464-1.786-5.122-1.425-3.266-3.953-5.995-7.024-7.865-3.77-2.295-8.166-3.173-12.569-2.892C37.417 1.72 35.301-.876 32.574.29c-1.159.497-2.09 1.456-2.871 2.4-1.449 1.75-2.601 3.772-3.534 5.826-4.856 4.086-7.516 10.258-8.361 16.37-.756 5.455 1.491 10.487 6.02 13.788-2.71 4.687-3.394 9.721-2.72 15.014-1.523.004-3.314-.63-4.228-1.88-.847-1.16-.197-2.454.495-3.516 1.86-2.85 3.234-6.007 2.849-9.458-.666-5.957-6.524-10.417-12.621-9.59-3.133.425-6.363 2.504-7.385 5.552-1.04 3.102 1.799 6.26 5.082 5.651a4.475 4.475 0 002.768-1.699c.171-.225.276-.636.525-.78.522-.3 1.438.094 1.868.394.6.418.878 1.02.866 1.73-.034 1.855-1.518 3.347-2.342 4.91-.828 1.566-1.367 3.286-1.467 5.052-.489 8.692 9.717 14.296 17.592 11.774 2.291 1.72 5.43 2.267 8.267 2.159l.778.002h26.738c3.161 0 3.293-3.626 3.006-5.881a11.788 11.788 0 00-3.565-7.04c-.142-3.315-1.306-7.189-3.202-10.815zm-32.707 12.26c-.233-2.413-.28-4.863.33-7.226.646-2.496 1.832-4.87 3.362-6.96 2.411 1.106 5.234 1.738 8.28 1.738h8.4c2.96 0 5.564-.286 7.778-.838.49.743.942 1.507 1.36 2.289-1.695 2.637-2.33 5.859-1.864 8.93-4.033.166-8.22 1.182-11.961 2.624-1.801.694-3.674 1.548-5.085 2.878-1.447 1.364-1.505 2.79-1.365 4.674l-.4.015c-2.258 0-4.82-.255-6.515-1.88-1.667-1.595-2.11-4.07-2.32-6.245.107 1.112-.105-1.092 0 0zM21.079 26.44c.435-5.309 2.594-10.917 6.529-14.683-.84 2.526-1.27 5.338-.239 7.877.207.508.504 1.26.916 1.65.442.421 1.03.268.803-.403-.125-.37-.5-.74-.681-1.104a7.102 7.102 0 01-.608-1.834c-.501-2.624.325-5.377 1.38-7.775.978-2.227 2.276-4.657 4.092-6.349-.854 2.243-1.2 4.679-1.097 7.066.034.78.74 6.925 1.977 6.467.638-.235-.414-2.397-.539-2.877a17.346 17.346 0 01-.558-3.996c-.053-2.34.342-4.735 1.276-6.898 1.537 1.37 2.65 3.414 3.619 5.186.259.474.453 1.083.778 1.515.238.317.798.602.908-.027.076-.438-.512-1.175-.715-1.554a38.935 38.935 0 00-.885-1.565c5.666-.593 11.585 1.07 15.251 5.532 1.936 2.356 2.642 5.192 3.612 8.002.457 1.323.933 2.665 1.704 3.85.914 1.405 1.58 2.882 1.779 4.55a.965.965 0 01-.368-.064l-.841-.264c-1.085-.427-1.779 1.203-1.064 1.902l1.403 1.371c.18.176.401.285.634.331-1.786 6.064-9.976 6.843-15.347 6.843h-8.402c-7.266 0-15.984-4.61-15.317-12.75zM57.01 50.489c.038.414.06.82.061 1.209a8.639 8.639 0 00-4.096-1.252c-.453-2.8.066-5.743 1.543-8.191 1.261 2.576 2.23 5.378 2.492 8.234zM34.557 60.636c-.15-1.875-.084-3.173 1.455-4.433 1.638-1.341 3.747-2.147 5.745-2.81a45.33 45.33 0 016.833-1.673c2.137-.356 4.436-.71 6.53.02 3.694 1.29 5.826 5.164 5.383 8.896H34.557zm-13.511-1.114c-3.341 0-6.747-1.468-8.816-4.065-2.05-2.57-2.17-5.871-.774-8.767 1.338-2.772 3.973-5.54 2.382-8.812-1.123-2.31-4.617-3.87-6.958-2.3-1.003.672-1.495 2.648-3.075 1.88-1.604-.78-.46-2.562.37-3.436 2.112-2.218 5.588-2.426 8.3-1.219 2.3 1.025 4.072 3.022 4.623 5.446.621 2.728-.326 5.499-1.795 7.811-.955 1.502-1.93 2.982-1.813 4.83.071 1.132.565 2.187 1.319 3.041 2.178 2.47 6.291 3.494 9.323 1.986.307 1.054.718 1.933 1.243 2.66-1.33.644-2.85.945-4.33.945zm28.318-34.02c-.059-1.85.985-3.383 2.329-3.424 1.346-.04 2.483 1.427 2.541 3.277.059 1.85-.985 3.384-2.33 3.423-1.345.042-2.482-1.426-2.54-3.276z"/></svg>