<svg xmlns="http://www.w3.org/2000/svg" viewBox="0 0 64 64"><path d="M57.132 40.253c2.82-1.355 5.178-3.547 6.184-6.51 1.121-3.31.53-7.043-1.202-10.046-.789-1.367-1.449-2.6-1.967-4.104-.59-1.705-1.062-3.464-1.786-5.122-1.425-3.266-3.953-5.995-7.024-7.865-3.77-2.295-8.166-3.173-12.569-2.892C37.417 1.72 35.301-.876 32.574.29c-1.159.497-2.09 1.456-2.871 2.4-1.449 1.75-2.601 3.772-3.534 5.826-4.856 4.086-7.516 10.258-8.361 16.37-.756 5.455 1.491 10.487 6.02 13.788-2.71 4.687-3.394 9.721-2.72 15.014-1.523.004-3.314-.63-4.228-1.88-.847-1.16-.197-2.454.495-3.516 1.86-2.85 3.234-6.007 2.849-9.458-.666-5.957-6.524-10.417-12.621-9.59-3.133.425-6.363 2.504-7.385 5.552-1.04 3.102 1.799 6.26 5.082 5.651a4.475 4.475 0 0 0 2.768-1.699c.171-.225.276-.636.525-.78.522-.3 1.438.094 1.868.394.6.418.878 1.02.866 1.73-.034 1.855-1.518 3.347-2.342 4.91-.828 1.566-1.367 3.286-1.467 5.052-.489 8.692 9.717 14.296 17.592 11.774 2.291 1.72 5.43 2.267 8.267 2.159l.778.002h26.738c3.161 0 3.293-3.626 3.006-5.881a11.788 11.788 0 0 0-3.565-7.04c-.142-3.315-1.306-7.189-3.202-10.815zm-32.707 12.26c-.233-2.413-.28-4.863.33-7.226.646-2.496 1.832-4.87 3.362-6.96 2.411 1.106 5.234 1.738 8.28 1.738h8.4c2.96 0 5.564-.286 7.778-.838.49.743.942 1.507 1.36 2.289-1.695 2.637-2.33 5.859-1.864 8.93-4.033.166-8.22 1.182-11.961 2.624-1.801.694-3.674 1.548-5.085 2.878-1.447 1.364-1.505 2.79-1.365 4.674l-.4.015c-2.258 0-4.82-.255-6.515-1.88-1.667-1.595-2.11-4.07-2.32-6.245.107 1.112-.105-1.092 0 0zM21.079 26.44c.435-5.309 2.594-10.917 6.529-14.683-.84 2.526-1.27 5.338-.239 7.877.207.508.504 1.26.916 1.65.442.421 1.03.268.803-.403-.125-.37-.5-.74-.681-1.104a7.102 7.102 0 0 1-.608-1.834c-.501-2.624.325-5.377 1.38-7.775.978-2.227 2.276-4.657 4.092-6.349-.854 2.243-1.2 4.679-1.097 7.066.034.78.74 6.925 1.977 6.467.638-.235-.414-2.397-.539-2.877a17.346 17.346 0 0 1-.558-3.996c-.053-2.34.342-4.735 1.276-6.898 1.537 1.37 2.65 3.414 3.619 5.186.259.474.453 1.083.778 1.515.238.317.798.602.908-.027.076-.438-.512-1.175-.715-1.554a38.935 38.935 0 0 0-.885-1.565c5.666-.593 11.585 1.07 15.251 5.532 1.936 2.356 2.642 5.192 3.612 8.002.457 1.323.933 2.665 1.704 3.85.914 1.405 1.58 2.882 1.779 4.55a.965.965 0 0 1-.368-.064l-.841-.264c-1.085-.427-1.779 1.203-1.064 1.902l1.403 1.371c.18.176.401.285.634.331-1.786 6.064-9.976 6.843-15.347 6.843h-8.402c-7.266 0-15.984-4.61-15.317-12.75zM57.01 50.489c.038.414.06.82.061 1.209a8.639 8.639 0 0 0-4.096-1.252c-.453-2.8.066-5.743 1.543-8.191 1.261 2.576 2.23 5.378 2.492 8.234zM34.557 60.636c-.15-1.875-.084-3.173 1.455-4.433 1.638-1.341 3.747-2.147 5.745-2.81a45.33 45.33 0 0 1 6.833-1.673c2.137-.356 4.436-.71 6.53.02 3.694 1.29 5.826 5.164 5.383 8.896H34.557zm-13.511-1.114c-3.341 0-6.747-1.468-8.816-4.065-2.05-2.57-2.17-5.871-.774-8.767 1.338-2.772 3.973-5.54 2.382-8.812-1.123-2.31-4.617-3.87-6.958-2.3-1.003.672-1.495 2.648-3.075 1.88-1.604-.78-.46-2.562.37-3.436 2.112-2.218 5.588-2.426 8.3-1.219 2.3 1.025 4.072 3.022 4.623 5.446.621 2.728-.326 5.499-1.795 7.811-.955 1.502-1.93 2.982-1.813 4.83.071 1.132.565 2.187 1.319 3.041 2.178 2.47 6.291 3.494 9.323 1.986.307 1.054.718 1.933 1.243 2.66-1.33.644-2.85.945-4.33.945zm28.318-34.02c-.059-1.85.985-3.383 2.329-3.424 1.346-.04 2.483 1.427 2.541 3.277.059 1.85-.985 3.384-2.33 3.423-1.345.042-2.482-1.426-2.54-3.276z"/></svg>