<svg xmlns="http://www.w3.org/2000/svg" viewBox="0 0 71 106"><path d="M69.553 87.704c-.086-.273-.437-.763-.75-1.196a8.388 8.388 0 0 1-.433-.635l-.032-.067-.025-.058-.039-.058h-.005a.336.336 0 0 0-.115-.096c-.538-.297-.903-.442-1.288-.601-.212-.087-.428-.173-.683-.29l-.375-.172c-.509-.232-1.034-.472-1.625-.88l.015-.038-.116-.03-.1-.072-.02.044c-.69-.165-1.386-.31-2.086-.432l-.096-.02-.039.087-.032.069-.063-.012c-.767-.143-1.616-.285-2.554-.443-1.512-.253-3.226-.54-5.221-.932a16.914 16.914 0 0 1-3.696-1.154c.071-.56.193-1.182.404-1.548.438-.782 1.135-1.363 1.861-1.892.733-.53 1.517-1.015 2.258-1.63.37-.307.731-.646 1.049-1.049.169-.18.309-.434.453-.67.165-.253.227-.457.323-.677l.068-.163.017-.04.009-.021.005-.011.018-.062.024-.094.094-.382.091-.383c.024-.131.029-.269.043-.405l.034-.41c.01-.136-.014-.278-.021-.42l-.04-.423-.106-.415c-.139-.561-.428-1.056-.732-1.5-.158-.215-.329-.413-.498-.612-.174-.177-.349-.368-.525-.535-.706-.676-1.411-1.249-1.97-1.869l-.21-.23-.18-.237c-.056-.078-.129-.16-.17-.233l-.124-.21c-.044-.081-.085-.106-.133-.233l-.142-.324-.07-.16-.018-.04-.005-.011c.064.14.017.035.03.063l-.004-.016-.018-.068-.075-.266c-.18-.718-.154-1.522-.024-2.337.134-.82.38-1.655.683-2.483.612-1.662 1.43-3.302 2.279-4.958.256-.499.515-1 .776-1.502.322.113.652.162 1.01.133l.066-.007c.136-.02.262-.05.375-.085l.046-.015c.207-.064.415-.163.631-.304.282-.175.487-.372.609-.488l.064-.06c.107-.102.202-.273.333-.512.147-.266.33-.599.596-.956.136-.19.299-.38.497-.574.128-.136.267-.262.416-.375.88-.685 1.281-1.814 1.555-2.828.127-.468.234-.959.345-1.478.069-.312.138-.633.214-.96.139-.6.259-1.405.328-2.21.126-1.491.183-4.134-.839-5.084a1.263 1.263 0 0 0-.666-.326c.05-.787.07-1.611.052-2.483.628-5.473.008-12.282-2.33-18.248a16.837 16.837 0 0 0-1.217-3.311c-.307-.612-.66-1.2-1.055-1.758a13.201 13.201 0 0 0-1.866-2.145c-1.422-1.728-3.09-3.227-5.034-4.385-7.55-4.495-21.707-5.63-28.896.036a.555.555 0 0 0-.126.206c-5.95 1.843-9.288 7.174-10.604 13.377-.999 4.705-.842 10.372.341 15.019.178.697.443 1.387.725 2.075-4.153 2.509-6.778 6.077-7.8 10.058l-.006.017-.008.021a.124.124 0 0 0-.005.02l-.017.053-.233.761.133-.302-.093.457.002-.007c-.08.434-.142.873-.185 1.313l-.005.012.005-.008c-.314 3.166.328 6.496 1.944 9.686l.006.025-.003-.018c.05.1.106.197.159.297.011.052.02.11.034.159.051.264.142.456.185.592l.074.207-.049-.213c-.023-.11-.062-.274-.094-.462a22.937 22.937 0 0 0 3.07 4.302l.028.1.06.206-.035-.211-.007-.044c.498.552 1.02 1.097 1.588 1.627 1.091 1.018 2.495 2.007 4.068 2.887a28.365 28.365 0 0 0 6.544 2.653l.12.055c.253.096.498.173.723.252l.653.152c.202.044.394.054.563.08.338.057.61.03.792.039l.279.002-.278-.028c-.181-.025-.449-.03-.78-.106-.081-.017-.168-.032-.257-.049 2.244.391 4.384.375 6.117-.223l.009-.001h-.007c.03-.01.06-.025.09-.035-.588 5.382-3.201 11.402-11.556 13.034-1.984.39-3.691.676-5.198.927-.881.147-1.683.28-2.41.415l-.399.073c-.015-.033-.031-.064-.045-.097l-.04-.087-.09.016c-.701.125-1.399.27-2.091.437l-.015-.044-.1.072-.12.03.018.038c-.59.407-1.12.648-1.629.88l-.37.172c-.255.115-.475.202-.688.29-.384.158-.745.302-1.287.6a.431.431 0 0 0-.116.097l-.04.057a.346.346 0 0 0-.027.06c-.011.018-.02.043-.034.066-.063.125-.241.376-.433.634-.307.434-.663.924-.749 1.197C.552 89.597.17 92.067 0 95.223a64.622 64.622 0 0 0 35.361 10.485 64.558 64.558 0 0 0 35.357-10.49c-.17-3.158-.552-5.625-1.165-7.514zM53.968 68.68c.686.536 1.242 1.108 1.5 1.806l.099.263.047.282c.013.095.044.188.044.288v.302c-.003.1.006.202-.003.305l-.05.314-.046.315-.012.08c.007-.02-.016.057.014-.04l-.002.011-.007.021-.013.042-.054.17c-.073.218-.135.478-.232.617-.091.167-.152.343-.29.517a6.21 6.21 0 0 1-.83.996c-.625.627-1.358 1.185-2.063 1.803-.7.615-1.404 1.317-1.812 2.226-.194.419-.247 1.073-.247 1.655-6.04-2.808-7.642-8.673-7.822-13.537.136-.074.275-.15.438-.243 1.501-.847 3.338-1.974 3.995-2.598.477-.458.953-.955 1.404-1.462.53-.515 1.03-1.057 1.506-1.612-.044.982.019 2.02.368 3.022l.155.403.04.101.01.026.037.085.004.009.022.039.084.154c.114.205.206.398.408.67l.268.372c.09.118.18.203.27.306l.27.292.283.26c.756.681 1.538 1.197 2.217 1.74zm5.287-24.542c.694-1.432 1.294-3.188 1.656-5.327.074-.44.137-.898.19-1.372.013.008.022.02.028.033.023.047.029.077.029.077s-.004-.03-.02-.081c-.004-.018-.018-.033-.036-.045.03-.264.056-.536.077-.81.14.031.267.1.372.197.628.584.886 2.337.687 4.691-.058.72-.164 1.436-.317 2.142-.078.33-.147.652-.215.967-.112.513-.216.997-.34 1.453-.36 1.328-.774 2.099-1.389 2.577a3.687 3.687 0 0 0-.465.42 4.52 4.52 0 0 0-.539.625c-.283.38-.483.742-.63 1.008-.092.169-.19.344-.238.39l-.07.066c-.11.104-.29.278-.535.43a2.042 2.042 0 0 1-.5.245l-.046.015a2.364 2.364 0 0 1-.32.074l.037.237-.115-.23a1.874 1.874 0 0 1-.705-.087c.391-.758.78-1.529 1.16-2.32.137-.286.275-.57.41-.863.25-.55.489-1.119.717-1.702.143-.366.288-.733.417-1.118a17.2 17.2 0 0 0 .26-.849c.15-.264.297-.548.44-.843zm-16.129-1.423c.467 2.029 2.302 3.403 4.245 3.11 2.05-.308 3.439-2.35 3.107-4.56a4.675 4.675 0 0 0-.084-.411 7.918 7.918 0 0 1 2.834 1.302c-.04.093-.072.19-.116.28a6.255 6.255 0 0 1-1.933 2.355c-.213.155-.424.315-.665.433-.23.133-.483.233-.732.333-1.009.399-2.124.424-3.194.348-1.07-.088-2.165-.227-3.258-.26-.796-.014-1.658-.219-1.924-.77-.02-.038-.03-.08-.044-.12.378-.688.995-1.404 1.764-2.04zM12.52 30.001c.485-5.127 3.252-6.065 6.365-9.201.082 4.32 4.812 6.728 7.859 8.314C32.167 31.94 39.28 31.34 45.09 33.62c-.922.157-1.854.25-2.79.278-1.727.032-2.325 2.846-2.352 2.84.013-.011 1.983.056 5.478-.997.758-.228 1.466-.57 2.167-.927 1.257.707 2.646 1.641 3.876 2.746a3.149 3.149 0 0 1-.136-.051c-.159-.058-.322-.13-.497-.185l-.551-.135-.289-.069-.302-.036a11.467 11.467 0 0 0-.625-.063c-.425.01-.869-.015-1.312.064-.447.038-.886.16-1.33.262-.427.151-.866.277-1.265.481-.414.17-.785.409-1.149.629-.34.223-.665.471-.97.742-.283.268-.558.51-.767.779l-.314.367-.24.367c-.148.229-.28.426-.356.61l-.259.555.339-.508c.095-.168.248-.346.42-.55l.273-.325.333-.332c.22-.242.504-.457.792-.692.138-.126.307-.22.47-.329.166-.1.32-.232.501-.325.355-.199.721-.402 1.115-.564.381-.19.802-.302 1.208-.443.42-.1.835-.223 1.26-.264.418-.078.836-.077 1.24-.102l.595.03.29.013.277.046.536.09c.17.038.33.096.487.14.154.05.31.086.446.141l.267.116c.503.49.97 1.01 1.376 1.557a8.559 8.559 0 0 0-3.058-1.152 8.118 8.118 0 0 0-.674-.084c-.24-.023-.464-.026-.695-.03-.46.002-.92.04-1.373.114a9.633 9.633 0 0 0-1.326.312 8.136 8.136 0 0 0-.63.227c-.223.084-.425.18-.626.276-.784.391-1.516.88-2.18 1.453-.652.575-1.222 1.213-1.656 1.95-.209.37-.387.762-.474 1.19-.088.423-.074.91.18 1.324.25.42.71.674 1.152.79.446.126.896.146 1.336.133 1.087-.036 2.158.04 3.26.039.589.007 1.178-.029 1.761-.108.5-.059.993-.175 1.466-.346l.025-.008.02-.008.165-.067c.135-.054.268-.113.399-.177.055-.027.114-.052.168-.081.242-.123.479-.256.709-.4.242-.145.443-.308.67-.456.22-.162.448-.325.65-.503.43-.34.827-.718 1.228-1.097.164-.155.421-.662.669-1.211.362.949.513 1.95.356 2.99-.126.832-.46 1.662-.76 2.513-.602 1.7-1.337 3.426-2.05 5.189-.714 1.766-1.429 3.575-1.956 5.519a17.65 17.65 0 0 0-.491 2.5 24.555 24.555 0 0 1-1.92 2.109 25.18 25.18 0 0 1-1.39 1.447c-.523.495-2.016 1.463-3.94 2.55-.172.096-.345.193-.524.287-2.358 1.292-4.296 2.166-4.913 2.225l-1.42.007-.676-.012-.978.001c-.632-.056-2.458-.875-4.769-2.136-.243-.13-.492-.268-.73-.4-1.882-1.062-3.376-2.03-3.9-2.528a24.981 24.981 0 0 1-1.407-1.46c-3.235-3.14-5.466-7.274-6.292-9.258l-.019-.056c-.082-.195-.162-.391-.238-.589a21.756 21.756 0 0 1-.17-.435l-.05-.135c-.064-.157-.12-.313-.178-.475l-.045-.12c-.019-.049-.039-.098-.057-.172l-.09-.238-.215.057c-.185.05-.215.217-.176.507l-.051.03c-.088.055-.168.104-.275.148-.023.011-.05.027-.108.044-.277.12-.578.174-.879.157l-.094-.009a2.078 2.078 0 0 1-.317-.073l-.07-.022a2.065 2.065 0 0 1-.483-.243c-.2-.129-.387-.28-.555-.449l-.044-.042c-.053-.05-.15-.226-.245-.395a8.122 8.122 0 0 0-.625-1 4.291 4.291 0 0 0-.533-.617 3.74 3.74 0 0 0-.478-.433c-.614-.479-1.027-1.249-1.38-2.576-.12-.44-.222-.907-.329-1.392a58.135 58.135 0 0 0-.23-1.026 17.223 17.223 0 0 1-.318-2.145c-.199-2.354.059-4.108.687-4.693.2-.186.44-.253.733-.209.622.1 1.243.486 1.846 1.151.221.24.42.496.6.767.05.073.095.144.141.215.02.264.027.528.01.794h.343c.226.46.55.756.66 1.289.271-3.622-1.343-7.056-.987-10.813zM9.51 83.688c.727-.134 1.527-.267 2.405-.414 1.51-.251 3.221-.538 5.212-.929 7.17-1.401 10.246-5.918 11.431-10.586a.84.84 0 0 0-.056-.035c.549-1.691.473-2.73.529-4.352 1.07.58 3.788 2.003 4.788 2.092l1.307.006v.013l1.812-.014c.987-.093 3.723-1.526 4.866-2.144.029.903.036 1.606.13 2.35.028.226.065.455.113.696.068.34.158.7.282 1.104l-.046.03c.918 3.848 3.095 7.618 7.741 9.68.02.419.055.72.055.72s.008-.285.043-.68c1.082.472 2.293.854 3.657 1.12 2.003.395 3.72.681 5.234.935.813.136 1.556.26 2.238.384-3.907 8.063-12.366 12.342-25.832 13.079l-.116-.005c-13.451-.732-21.9-5-25.817-13.047l.024-.003z"/><path d="M11.198 41.494c.082.236.254.444.369.63.133.193.255.378.335.563l.02.04c.082.17.176.327.23.485l.183.46c.066.137.077.263.11.363.053.204.081.321.081.321l-.048-.324c-.02-.102-.02-.234-.074-.373l-.148-.477c-.047-.176-.148-.357-.228-.556a2.835 2.835 0 00-.32-.59c-.124-.207-.265-.378-.337-.6-.092-.213-.159-.446-.228-.675l-.42-1.36c-.144-.44-.305-.833-.458-1.172-.162-.334-.305-.614-.472-.773-.094-.09-.195-.047-.206.012a.574.574 0 00-.022.08s.007-.029.029-.076c.022-.053.102-.074.177.007.068.083.134.192.195.328.072.13.12.291.195.456.022.055.043.122.066.18.248.66.476 1.498.723 2.357.075.234.147.466.248.694zM12.625 47.455l-.01-.005-.012-.002a.081.081 0 00.022.007z"/><path d="M11.824 47.028a1.412 1.412 0 0 1-.372-.265c-.132-.1-.215-.254-.326-.392-.18-.308-.291-.675-.375-1.044-.077-.368-.158-.755-.19-1.102l-.062-.509c-.03-.163-.02-.315-.03-.456-.04-.567 0-.94 0-.94s-.023.089-.045.25c-.025.16-.066.392-.067.678-.033.567.046 1.336.199 2.102.095.382.223.767.427 1.103.12.154.228.314.38.417.133.124.283.197.42.262.272.129.505.184.665.25.071.027.134.05.166.07.007 0 .011.003.02.001-.04-.037-.1-.06-.176-.102-.15-.082-.384-.182-.634-.323zm46.297.42l-.012.002-.011.005a.323.323 0 0 0 .023-.006z"/><path d="M58.089 47.453l.02-.002c.034-.017.095-.041.167-.07.16-.065.392-.12.664-.25.138-.064.288-.137.422-.261.151-.101.26-.263.38-.417.205-.336.332-.721.425-1.103.153-.766.232-1.535.199-2.102-.001-.286-.042-.518-.066-.678-.023-.161-.047-.25-.047-.25s.04.373 0 .94c-.008.143.001.293-.028.456-.021.161-.041.331-.062.509-.043.37-.107.739-.19 1.102-.085.37-.198.737-.376 1.044-.11.137-.194.292-.325.392a1.417 1.417 0 01-.373.265c-.251.141-.483.241-.633.322-.076.044-.136.066-.177.103zm-27.482 5.618c.026.145.025.296.081.437.025.07.046.143.074.211l.11.195c.06.138.183.228.267.336.012.012.026.02.038.032.088.082.189.145.276.212.1.075.215.111.31.162.19.105.374.122.49.162l.19.044-.174-.089c-.108-.056-.274-.117-.443-.237-.083-.059-.188-.105-.272-.186-.082-.082-.182-.154-.263-.248-.07-.1-.17-.188-.221-.307l-.092-.17c-.01-.026-.018-.055-.027-.082l-.034-.104c-.053-.121-.053-.257-.08-.384.004-.132-.019-.261 0-.387.01-.253.063-.49.112-.69.108-.4.22-.663.22-.663s-.18.223-.348.62c-.072.201-.166.438-.195.712-.024.135-.017.28-.019.424zM18.303 38.217c.244-.104.487-.208.73-.314.138-.055.291-.09.445-.14.157-.045.316-.103.488-.142l.535-.089.278-.046.288-.012c.195-.005.393-.027.595-.031.405.023.822.023 1.241.102.424.04.84.163 1.258.264.408.141.828.253 1.209.443a9.99 9.99 0 011.114.564c.182.093.334.223.502.325.162.11.33.205.47.33.288.236.572.45.791.692l.334.333c.096.113.187.223.274.324.171.204.325.383.42.55l.338.508-.258-.556c-.076-.183-.207-.379-.357-.61l-.24-.366-.313-.368c-.21-.268-.484-.511-.767-.78a8.577 8.577 0 00-.97-.741c-.363-.22-.736-.459-1.15-.628-.398-.204-.837-.33-1.265-.481-.443-.101-.882-.223-1.331-.262-.442-.08-.887-.053-1.31-.063-.21.014-.418.035-.626.062l-.302.036-.288.068-.551.135c-.175.054-.338.127-.497.185-.156.066-.314.109-.45.184l-.382.22-.33.194c-.096.068-.178.137-.255.196l-.474.385.527-.309c.086-.048.175-.107.279-.162zm17.026 20.508c-.012-.007-1.668-.78-4.232-.35a3.188 3.188 0 01-1.54-.132c-.095-.096-.32-.25-.413-.322-.127-.096-.258-.135-.294-.084-.037.05.036.172.163.27.059.045.181.103.297.149.009.364.11 1.43 1.304 2.513.395.358.906.719 1.576 1.056a.04.04 0 00.012.002c.796.38 1.826.676 3.137.74 1.619-.046 2.824-.45 3.675-.938a6.766 6.766 0 001.073-.778c1.156-1.038 1.331-2.055 1.36-2.46.091-.057.176-.113.223-.147.13-.096.204-.215.168-.267-.035-.051-.167-.016-.295.077-.12.096-.23.202-.332.317-.288.098-.778.233-1.191.186-3.101-.468-4.678.155-4.691.168zM17.901 33.32c2.95-.306 4.907 1.672 7.396 2.421 3.494 1.053 5.465.986 5.478.996-.026.007-.624-2.806-2.353-2.838-3.934-.072-8.896-1.912-10.727-1.595-2.264.393-2.585 2.652-2.478 2.675.013-.11.612-1.443 2.684-1.659zm20.167 21.544l.189-.045c.116-.04.302-.055.49-.162.096-.052.21-.087.31-.162.088-.067.189-.13.277-.212.011-.011.026-.02.037-.031.086-.11.208-.199.27-.336l.108-.195c.029-.07.05-.141.075-.212.055-.14.055-.292.08-.437-.003-.144.005-.289-.02-.424-.029-.273-.123-.51-.194-.713-.17-.395-.35-.619-.35-.619s.113.261.222.663c.049.2.1.437.111.69.019.126-.003.257 0 .387-.027.127-.027.263-.08.384l-.035.107c-.008.026-.015.053-.026.079l-.091.17c-.05.12-.15.207-.221.308-.081.094-.181.165-.263.248-.085.08-.188.125-.273.185-.169.12-.333.18-.443.237l-.173.09z"/><path d="M32.739 53.877c.28.09.679.293.892.406l.026.02c.154.101.313.212.48.322.164.115.338.24.53.347.172.095.368.185.588.205h.004c.22-.021.416-.11.589-.205.192-.106.365-.232.528-.347.17-.11.327-.222.48-.322.01-.006.017-.013.025-.02.214-.113.615-.316.894-.406.398-.13.75.013.697-.127-.025-.067-.124-.102-.259-.11l.028-.002s-.106-.023-.298-.014a2.2 2.2 0 0 0-.34.053.99.99 0 0 0-.23.083.95.95 0 0 0-.189.1c-.138.092-.272.198-.427.29a9.812 9.812 0 0 0-.5.297c-.316.192-.644.441-.999.49-.355-.05-.681-.299-.998-.49a8.022 8.022 0 0 0-.5-.298c-.153-.091-.288-.197-.428-.288a.91.91 0 0 0-.232-.12 1.07 1.07 0 0 0-.186-.064 2.337 2.337 0 0 0-.342-.053c-.193-.009-.297.014-.297.014l.028.002c-.135.007-.234.042-.258.11-.058.14.297-.004.694.127zm-2.84-8.72c.253-.414.27-.9.182-1.323a4.076 4.076 0 0 0-.475-1.191c-.434-.737-1.004-1.376-1.657-1.95a10.48 10.48 0 0 0-2.179-1.453 8.317 8.317 0 0 0-.625-.276 7.35 7.35 0 0 0-.63-.227 10.014 10.014 0 0 0-1.324-.312 8.906 8.906 0 0 0-1.373-.114c-.231.005-.457.007-.697.03a8.535 8.535 0 0 0-3.246.956 8.784 8.784 0 0 0-1.124.706c-.362.27-1.234-.044-1.234-.044s.97 2.527 1.376 2.91c.4.38.798.757 1.228 1.096.203.179.43.34.65.503.228.147.427.31.67.454.228.148.47.275.71.4.053.03.11.054.164.08l.058.029c.11.052.219.1.33.144l.19.077.006.003.01.003c.496.183.989.292 1.487.353.582.082 1.174.113 1.758.108 1.102.001 2.172-.075 3.258-.039.44.013.89-.007 1.337-.132.442-.117.902-.37 1.15-.79zm-.58-.285c-.267.552-1.131.755-1.924.772-1.094.031-2.189.172-3.258.26-1.07.075-2.186.05-3.195-.349-.25-.1-.5-.2-.73-.333-.243-.119-.454-.279-.665-.434a6.085 6.085 0 0 1-1.127-1.074 6.133 6.133 0 0 1-.808-1.28c-.035-.071-.06-.148-.092-.22a7.954 7.954 0 0 1 2.804-1.333 4.49 4.49 0 0 0-.078.383c-.333 2.209 1.058 4.252 3.106 4.56 1.966.296 3.82-1.115 4.26-3.184.768.62 1.39 1.32 1.786 1.998a.96.96 0 0 1-.08.234z"/></svg>