<svg xmlns="http://www.w3.org/2000/svg" viewBox="0 0 24 24"><path fill-rule="evenodd" d="M11.029 15a1 1 0 0 1 1.037.962c.047 1.244.113 2.152.177 2.804.064.64.451 1.027.991 1.093.636.077 1.534.141 2.765.141 1.232 0 2.13-.064 2.766-.141.54-.066.927-.452.99-1.094.12-1.208.245-3.296.245-6.765s-.124-5.557-.244-6.765c-.064-.642-.452-1.028-.991-1.094C18.129 4.064 17.231 4 15.999 4c-1.231 0-2.129.064-2.765.141-.54.066-.927.452-.99 1.093a46.3 46.3 0 0 0-.178 2.804 1 1 0 1 1-1.999-.076c.048-1.277.117-2.227.186-2.926.147-1.47 1.172-2.688 2.738-2.88C13.721 2.067 14.701 2 16 2c1.3 0 2.28.067 3.009.156 1.566.192 2.591 1.41 2.738 2.88C21.875 6.331 22 8.488 22 12c0 3.511-.125 5.67-.254 6.964-.147 1.47-1.172 2.688-2.738 2.88-.73.089-1.71.156-3.008.156-1.3 0-2.28-.067-3.009-.156-1.566-.192-2.591-1.41-2.738-2.88-.07-.7-.138-1.65-.186-2.926A1 1 0 0 1 11.03 15z" clip-rule="evenodd"/><path fill-rule="evenodd" d="M7.207 14.793a1 1 0 1 1-1.414 1.414l-3.5-3.5a1 1 0 0 1 0-1.414l3.5-3.5a1 1 0 0 1 1.414 1.414L5.414 11H15a1 1 0 1 1 0 2H5.414l1.793 1.793z" clip-rule="evenodd"/></svg>