<svg xmlns="http://www.w3.org/2000/svg" viewBox="0 0 109 109"><path d="M81.623 33.659s1.924-2.283.123-4.734c-1.813-2.461 6.132 2.384-.123 4.734zm-5.763.078s4.554 1.377 5.696 1.32c0 0 .75 1.556 2.081.728 0 0-.515 1.488-2.35.884 0 0 .358 2.697-2.876-.09-3.536-3.032-2.551-2.842-2.551-2.842zm6.658 10.351s.448 1.947 2.742 1.455c0 0 .335.895.48 1.802 0 0 .09-1.891 1.288-2.473 1.197-.582 2.316-.437 2.484-1.757l-2.238.335a1.79 1.79 0 0 0-.828.37c-.57.47-1.936 1.264-3.928.268zm-.1 10.53c-.337-1.175 2.842-2.26 1.107-3.066-1.175-.548-3.57-.369-3.57-.369 1.12-.38 7.274-3.838 6.715-1.891-.426 1.5-2.171 1.477-2.171 1.477.682.459.94.951 1.007 1.399.078.626-.28 1.253-.85 1.533-1.769.861-1.433 2.316-1.433 2.316s-.548-.515-.806-1.399z"/><path d="M41.237 69.793c1.276-.952 3.928-1.858 7.038-6.435 7.834-11.526 3.067-22.291 8.572-17.02 6.245 5.986 6.457 12.824 5.26 17.333-2.138 8.147.962 13.194 4.297 16.126-3.749-6.457-2.473-11-2.473-11 1.31-6.894 5.07-9.21 5.07-9.21 14.423 4.017 14.457-1.858 14.457-1.858s-3.19 3.883-8.594-.414c-5.405-4.297-7.71-3.525-11.224-8.829-3-4.532-3.2-5.494-3.2-5.494s-.079 1.018-1.321 1.22c-1.276.212-2.384-1.097-2.384-1.097-7.33-4.13-4.543-9.02-4.543-9.02s-.682 4.667 2.697 5.976c0 0-2.854-3.11-.918-5.226 1.545-1.69 1.78-.917 3.212-.38 0 0-1.51.033-2.328.48-1.018.55-.75 2.608-.75 2.608s.885-.861 1.332-.828c.448.034-.671 1.802 1.008 2.473 1.678.672 2.55 2.35 3.379 1.51.66-.592-1.164-1.499-1.164-1.499s-.895-.324-.112-1.398c.537-.739-.515-1.97.85-2.194 1.366-.224 3.134 4.096 4.992 5.103 1.734.951 4.095.683 4.095.683s-3.614-2.25-4.084-3.615c-.481-1.376-.011-3.223.817-3.681.828-.46 2.965-2.54 3.525-4.969.56-2.428 5.752-4.196 6.714-5.517.962-1.331 3.637-6.009 5.92-7.61 0 0 5.237 4.32 4.554 13.25l-.76 6.423s-.046.963.905 2.776c0 0 .381-6.547.56-8.382.683-6.848-.772-10.687-.772-10.687 2.406 4.152 1.432 18.084 1.432 18.084 1.813-6.927.011-17.457.011-17.457 3.28 6.02 2.183 15.208 2.183 15.208 2.461-12.097-3.425-19.819-3.425-19.819-2.54-7.374-8.851-9.142-8.851-9.142C69.794-1.993 59.51.289 59.51.289 47.268-1.3 43.363 6.88 40.24 8.84c-1.645 1.04-3.626 3.681-5.125 5.942.01-.325.01-.694 0-1.086 1.924-1.275.224-3.636-.526-4.532.324-1.992 2.07-3.838 2.07-3.838s-3.469 1.623-2.518 5.797c.168.716.213 1.443.19 2.148-3.48 1.858-3.603 4.353-3.267 5.685-3.033.895-9.232 3.469-12.298 10.15-4.152 9.03.111 10.585 1.656 14.558 1.544 3.973 6.882 6.02 9.389 5.27 2.506-.749 4.308.885 7.475 3.235 3.166 2.35 9.478 1.175 9.478 1.175 0 7.195-2.92 12.992-5.528 16.45zm33.895-57.586s-2.876 1.768-9.5 2.182c-5.137.325-4.174-1.645-12.701-.627 0 0 4.99-1.454 9.78-.257 4.029.996 12.421-1.298 12.421-1.298zm-6.501-1.544c-2.72.481-5.125.078-5.125.078 1.007.112 3.816-.682 5.584-.772 2.07-.1 5.707 1.018 5.707 1.018s-3.548-.794-6.166-.324zm2.473-7.017c-1.78-1.063-4.499-1.6-4.499-1.6 2.843-.212 4.499 1.6 4.499 1.6zm3.2 2.72c-5.987-3.212-16.27-3.682-16.27-3.682 10.06-1.78 16.27 3.682 16.27 3.682zM61.67 5.068s3.167-1.4 8.091.414c0 0-2.081-.403-3.603-.269 0 0 4.263.806 6.535 2.428 0 0-4.8-1.633-10.508-1.186 0 0 3.145-.638 4.812-.515 0-.01-3.413-1.309-5.327-.872zm11.885 3.871C67.624 7.8 56.568 7.82 56.568 7.82c9.489-1.801 16.987 1.12 16.987 1.12zm-13.194.93c-6.4-1.153-8.795-.594-8.795-.594 4.297-1.477 8.616.94 12.868-.067 4.253-1.007 8.606.347 8.606.347s-4.823-.727-7.14-.078c-1.331.369-4.04.682-5.539.391zm-25.324 2.707a9.946 9.946 0 0 0-.38-1.89 2.837 2.837 0 0 1-.112-1.332c.794 1.186 1.13 2.249.492 3.222zM32.8 18.541s-.235.045-.626.123c-.28-1.13.056-3.111 2.081-4.432-.134 1.176-.828 3.19-1.455 4.309zM28.86 44.357c-4.688-.56-6.658-2.988-6.658-2.988 1.354 1.13 4.622 1.488 4.622 1.488-1.388-.581-3.648-2.383-3.648-2.383 4.397 2.697 8.907 3.357 8.907 3.357-2.484.37-6.233-.727-6.233-.727 1.175.716 3.01 1.253 3.01 1.253zm-1.745-9.915c1.03-2.215 2.294-2.283 2.294-2.283-.784.314-2.294 2.283-2.294 2.283zm1.947-.94s-.481 2.328-3.39 3.055c0 0 2.204-1.432 3.39-3.055zm-6.245 2.272s3.727-3.402 5.16-6.558c0 0-1.276 4.499-5.16 6.558zm1.645-6.826s5.596-3.111 7.554-5.82c-.011 0-1.947 4.287-7.553 5.82zm7.397-7.531c-9.534 3.122-12.432 11.917-12.432 11.917C21.72 22 31.859 21.417 31.859 21.417zM20.076 41.01s5.696 6.3 12.69 5.584c0 .011-7.822 2.227-12.69-5.584zm11.716-1.757c7.71 8.695 16.07 8.56 16.07 8.56-8.785 2.653-16.07-8.56-16.07-8.56zm5.327.123s5.26 4.8 9.053 5.853c0 .01-6.558-.515-9.053-5.853zm-4.487-5.763s7.631-3.693 15.644 5.685c-.012 0-8.058-7.252-15.645-5.685zm17.725-12.421c3.178.973 8.426 1.488 11 .37 0 0-4.476 2.35-11.325.559-6.848-1.79-9.657-1.097-9.657-1.097s4.767-1.51 9.982.168zm14.883 1.645c-6.77 7.956-12.23 1.5-12.23 1.5 6.49 3.871 12.23-1.5 12.23-1.5zm-14.234 4.756s9.3 1.376 11.313-.716c2.015-2.082 4.89-4.823 8.539-6.468 0 0-4.029 2.126-7.006 6.31-2.987 4.197-12.846.874-12.846.874zm15.7 1.488c-1.667 2.462-8.292-.067-14.01 3.435 0 0 3.189-2.584 5.852-2.573 2.652.01 6.245.022 7.755-1.824 1.97-2.429 5.931-3.425 5.931-3.425s-3.715 1.724-5.528 4.387zm6.546-11.18c-1.521 1.187-3.3 2.06-5.214 2.35-4.13.639-6.01-.894-6.01-.894 1.175.47 2.966.637 4.264.38 1.197-.235 2.361-.615 3.435-1.186 5.405-2.865 8.561-3.715 8.561-3.715-1.869.75-3.737 2.059-5.036 3.066zm-3.883-.592c-6.289 2.865-13.35-.157-13.35-.157s8.83 1.567 12.511-.145c5.618-2.608 11.134-3.245 11.134-3.245s-3.547.48-10.295 3.547z"/><path d="M65.498 75.735s6.893.75 9.321 8.303c2.428 7.553 4.555 7.71 4.555 7.71s-1.254-2.574-1.825-5.595c-.57-3.022-1.734-7.341-6.3-9.49-3.804-1.779-5.751-.928-5.751-.928zm16.84 19.258s3.246 6.267-.48 11.146c0 0-2.955-5.036-15.264-6.412-12.31-1.377-13.618-6.502-14.212-11.46-.593-4.956-3.401-17.221-15.308-12.991 0 0 7.878-1.03 9.904 4.756 2.025 5.785 2.54 10.474 2.025 14.424-.504 3.961-2.048 9.59-1.533 14.189h43.799c0 .012-1.679-8.885-8.93-13.652zm-54.597 13.664c.023-1.422.045-5.54-.044-6.961-1.086-16.595 3.86-20.612 3.86-20.612s-3.279 8.762-1.399 16.472c1.746 7.162 5.775 11.101 5.775 11.101H27.74z"/></svg>