<svg xmlns="http://www.w3.org/2000/svg" viewBox="0 0 16 16"><path d="M8 0c-.55 0-1 .45-1 1s.45 1 1 1 1-.45 1-1-.45-1-1-1zM3.05 2.05a1 1 0 1 0 0 2 1 1 0 0 0 0-2zm9.9 0a1 1 0 1 0 0 2 1 1 0 0 0 0-2zM8 3a5 5 0 1 0 0 10A5 5 0 0 0 8 3zm0 2c.184 0 .367.02.55.05A2 2 0 0 0 9 9c.93 0 1.738-.645 1.95-1.55A3 3 0 1 1 8 5zM1 7c-.55 0-1 .45-1 1s.45 1 1 1 1-.45 1-1-.45-1-1-1zm14 0c-.55 0-1 .45-1 1s.45 1 1 1 1-.45 1-1-.45-1-1-1zM3.05 11.95a1 1 0 1 0 0 2 1 1 0 0 0 0-2zm9.9 0a1 1 0 1 0 0 2 1 1 0 0 0 0-2zM8 14c-.55 0-1 .45-1 1s.45 1 1 1 1-.45 1-1-.45-1-1-1zm0 0"/></svg>