<svg xmlns="http://www.w3.org/2000/svg" viewBox="0 0 24 24"><path fill-rule="evenodd" d="M9.024 2.783A1 1 0 0 1 10 2h4a1 1 0 0 1 .976.783l.44 1.981c.4.19.782.41 1.141.66l1.937-.61a1 1 0 0 1 1.167.454l2 3.464a1 1 0 0 1-.19 1.237l-1.497 1.373a8.056 8.056 0 0 1 0 1.316l1.497 1.373a1 1 0 0 1 .19 1.237l-2 3.464a1 1 0 0 1-1.167.454l-1.937-.61c-.36.25-.74.47-1.14.66l-.44 1.98A1 1 0 0 1 14 22h-4a1 1 0 0 1-.976-.783l-.44-1.981c-.4-.19-.78-.41-1.14-.66l-1.938.61a1 1 0 0 1-1.166-.454l-2-3.464a1 1 0 0 1 .19-1.237l1.497-1.373a8.095 8.095 0 0 1 0-1.316L2.53 9.969a1 1 0 0 1-.19-1.237l2-3.464a1 1 0 0 1 1.166-.454l1.938.61c.36-.25.74-.47 1.14-.66l.44-1.98zM10.803 4l-.377 1.696a1 1 0 0 1-.612.715 5.992 5.992 0 0 0-1.559.9 1 1 0 0 1-.925.174l-1.659-.522-1.198 2.074 1.282 1.176a1 1 0 0 1 .313.885 6.057 6.057 0 0 0 0 1.803 1 1 0 0 1-.313.886l-1.282 1.176 1.198 2.074 1.66-.522a1 1 0 0 1 .924.173c.468.375.993.68 1.559.901a1 1 0 0 1 .612.715L10.803 20h2.395l.377-1.696a1 1 0 0 1 .612-.715 5.99 5.99 0 0 0 1.558-.9 1 1 0 0 1 .925-.174l1.66.522 1.197-2.074-1.28-1.176a1 1 0 0 1-.314-.886 6.049 6.049 0 0 0 0-1.803 1 1 0 0 1 .313-.885l1.281-1.176-1.197-2.074-1.66.522a1 1 0 0 1-.925-.173 5.995 5.995 0 0 0-1.558-.901 1 1 0 0 1-.612-.715L13.198 4h-2.396z" clip-rule="evenodd"/><path fill-rule="evenodd" d="M12 10a2 2 0 1 0 0 4 2 2 0 0 0 0-4zm-4 2a4 4 0 1 1 8 0 4 4 0 0 1-8 0z" clip-rule="evenodd"/></svg>