<svg xmlns="http://www.w3.org/2000/svg" viewBox="0 0 24 24"><path fill-rule="evenodd" d="M9.523 8.934a.7.7 0 0 1-.59.428l-4.75.379a.7.7 0 0 0-.398 1.23l3.614 3.084a.7.7 0 0 1 .226.696L6.52 19.365a.7.7 0 0 0 1.045.761l4.071-2.477a.7.7 0 0 1 .728 0l4.072 2.477a.7.7 0 0 0 1.044-.76l-1.105-4.615a.7.7 0 0 1 .227-.696l3.614-3.084a.7.7 0 0 0-.399-1.23l-4.749-.38a.7.7 0 0 1-.59-.427l-1.832-4.387a.7.7 0 0 0-1.292 0L9.523 8.934zm6.495-1.503l-1.526-3.655c-.924-2.213-4.06-2.213-4.983 0L7.983 7.431l-3.959.316c-2.397.192-3.367 3.185-1.538 4.746l3.009 2.567-.92 3.84c-.559 2.334 1.979 4.183 4.03 2.935L12 19.769l3.396 2.066c2.05 1.248 4.588-.601 4.03-2.936l-.92-3.84 3.008-2.566c1.83-1.561.86-4.554-1.537-4.746l-3.96-.316z" clip-rule="evenodd"/></svg>