<svg width="900" height="300" viewBox="0 0 900 300" fill="none" xmlns="http://www.w3.org/2000/svg">
<rect x="900" width="300" height="900" transform="rotate(90 900 0)" fill="#F4F5F6"/>
<path d="M525 82.5755L517.424 75L375 217.424L382.576 225L393.29 214.286H503.571C506.412 214.282 509.135 213.152 511.143 211.143C513.152 209.135 514.282 206.412 514.286 203.571V93.2898L525 82.5755ZM503.571 203.571H404.004L445.752 161.823L458.495 174.566C460.505 176.576 463.23 177.704 466.071 177.704C468.913 177.704 471.638 176.576 473.648 174.566L482.143 166.071L503.571 187.486V203.571ZM503.571 172.33L489.719 158.477C487.71 156.467 484.984 155.339 482.143 155.339C479.301 155.339 476.576 156.467 474.567 158.477L466.071 166.972L453.337 154.238L503.571 104.004V172.33Z" fill="#E6E8EC"/>
<path d="M396.429 182.142V166.071L423.214 139.304L430.571 146.66L438.156 139.075L430.79 131.709C428.781 129.699 426.056 128.571 423.214 128.571C420.373 128.571 417.648 129.699 415.638 131.709L396.429 150.919V96.4282H482.143V85.7139H396.429C393.588 85.7167 390.864 86.8464 388.856 88.8551C386.847 90.8638 385.717 93.5874 385.714 96.4282V182.142H396.429Z" fill="#E6E8EC"/>
</svg>
