<svg xmlns="http://www.w3.org/2000/svg" viewBox="0 0 32 32"><path d="M16 22.4a1.55 1.55 0 0 0 1.14-.46c.308-.308.461-.688.46-1.14v-5.12l1.44 1.44c.293.293.667.44 1.12.44.453 0 .827-.147 1.12-.44.293-.293.44-.667.44-1.12 0-.453-.147-.827-.44-1.12l-4.16-4.16a1.394 1.394 0 0 0-.52-.34 1.813 1.813 0 0 0-.6-.1c-.213 0-.413.034-.6.1-.187.068-.36.181-.52.34l-4.16 4.16c-.293.293-.44.667-.44 1.12 0 .453.147.827.44 1.12.293.293.667.44 1.12.44.453 0 .827-.147 1.12-.44l1.44-1.44v5.12c0 .453.154.834.46 1.14.308.308.688.461 1.14.46zm0 9.6c-2.213 0-4.293-.42-6.24-1.26-1.947-.841-3.64-1.981-5.08-3.42-1.44-1.44-2.58-3.133-3.42-5.08C.422 20.293.002 18.213 0 16c0-2.213.42-4.293 1.26-6.24.841-1.947 1.981-3.64 3.42-5.08C6.12 3.24 7.813 2.1 9.76 1.26 11.707.422 13.787.002 16 0c2.213 0 4.293.42 6.24 1.26 1.947.841 3.64 1.981 5.08 3.42 1.44 1.44 2.58 3.133 3.42 5.08.841 1.947 1.261 4.027 1.26 6.24 0 2.213-.42 4.293-1.26 6.24-.841 1.947-1.981 3.64-3.42 5.08-1.44 1.44-3.133 2.58-5.08 3.42-1.947.841-4.027 1.261-6.24 1.26z"/><path d="M16 22.4a1.55 1.55 0 0 0 1.14-.46c.308-.308.461-.688.46-1.14v-5.12l1.44 1.44c.293.293.667.44 1.12.44.453 0 .827-.147 1.12-.44.293-.293.44-.667.44-1.12 0-.453-.147-.827-.44-1.12l-4.16-4.16a1.394 1.394 0 0 0-.52-.34 1.813 1.813 0 0 0-.6-.1c-.213 0-.413.034-.6.1-.187.068-.36.181-.52.34l-4.16 4.16c-.293.293-.44.667-.44 1.12 0 .453.147.827.44 1.12.293.293.667.44 1.12.44.453 0 .827-.147 1.12-.44l1.44-1.44v5.12c0 .453.154.834.46 1.14.308.308.688.461 1.14.46zm0 9.6c-2.213 0-4.293-.42-6.24-1.26-1.947-.841-3.64-1.981-5.08-3.42-1.44-1.44-2.58-3.133-3.42-5.08C.422 20.293.002 18.213 0 16c0-2.213.42-4.293 1.26-6.24.841-1.947 1.981-3.64 3.42-5.08C6.12 3.24 7.813 2.1 9.76 1.26 11.707.422 13.787.002 16 0c2.213 0 4.293.42 6.24 1.26 1.947.841 3.64 1.981 5.08 3.42 1.44 1.44 2.58 3.133 3.42 5.08.841 1.947 1.261 4.027 1.26 6.24 0 2.213-.42 4.293-1.26 6.24-.841 1.947-1.981 3.64-3.42 5.08-1.44 1.44-3.133 2.58-5.08 3.42-1.947.841-4.027 1.261-6.24 1.26z"/></svg>