<svg xmlns="http://www.w3.org/2000/svg" viewBox="0 0 20 20"><path d="M8.687 10.128c-.38.76.426 1.566 1.186 1.186a.882.882 0 0 0 .23-.165l8.023-8.024a.884.884 0 0 0-1.25-1.25L8.853 9.899a.884.884 0 0 0-.166.23zm-1.642 5.736c-.806.223-1.547-.257-2.078-.902-.542-.657-1.034-1.398-.786-2.213L5.495 8.43a2 2 0 0 1 .548-.88l5.795-5.41a.965.965 0 1 0-1.34-1.388L4.107 7.143a2 2 0 0 0-.502.84l-2.538 8.46c-.457 1.525.965 2.947 2.49 2.49l8.46-2.538a2 2 0 0 0 .84-.502L19.74 9.01A.884.884 0 0 0 20 8.384c0-.788-.952-1.182-1.509-.625l-6.45 6.452a2 2 0 0 1-.88.513l-4.116 1.14z"/></svg>