<svg xmlns="http://www.w3.org/2000/svg" viewBox="0 0 16 18"><path fill-rule="evenodd" d="M8 .5a6.266 6.266 0 0 1 6.262 6.048l.003.215v3.132a1 1 0 0 0 .106.447l1.525 3.05a.983.983 0 0 1-.778 1.418l-.103.006H.985a.985.985 0 0 1-.922-1.33l.041-.095 1.525-3.049a1 1 0 0 0 .106-.447V6.763A6.262 6.262 0 0 1 8 .5zm0 1.79a4.476 4.476 0 0 0-4.47 4.279l-.005.194v3.368c0 .222-.041.442-.122.649l-.067.152-.324.647a1 1 0 0 0 .895 1.447h8.188a1 1 0 0 0 .894-1.447l-.324-.648a1.788 1.788 0 0 1-.182-.634l-.008-.166V6.763A4.473 4.473 0 0 0 8 2.29z" clip-rule="evenodd"/><path d="M9.685 15.71c.553 0 1.02.48.728.95a1.794 1.794 0 0 1-1.384.835l-.134.005h-1.79a1.79 1.79 0 0 1-1.218-.477 1.684 1.684 0 0 1-.291-.365c-.285-.473.167-.948.719-.948h3.37z"/></svg>