<svg xmlns="http://www.w3.org/2000/svg" viewBox="0 0 20 20"><path d="M3 16a1 1 0 0 0 1 1h7a1 1 0 0 0 1-1v-3c0-.283.096-.521.288-.713A.964.964 0 0 1 13 12h3a1 1 0 0 0 1-1V4a1 1 0 0 0-1-1H4a1 1 0 0 0-1 1v12zm0 3c-.55 0-1.021-.196-1.413-.588A1.922 1.922 0 0 1 1 17V3c0-.55.196-1.021.588-1.413A1.922 1.922 0 0 1 3 1h14c.55 0 1.021.196 1.413.588.392.392.588.863.587 1.412v9.586a1 1 0 0 1-.293.707l-5.414 5.414a1 1 0 0 1-.707.293H3zm3-7a.968.968 0 0 1-.713-.288A.964.964 0 0 1 5 11c0-.283.096-.521.288-.713A.964.964 0 0 1 6 10h3c.283 0 .521.096.713.288.192.192.288.43.287.712a.968.968 0 0 1-.288.713A.964.964 0 0 1 9 12H6zm0-4a.968.968 0 0 1-.713-.288A.964.964 0 0 1 5 7c0-.283.096-.521.288-.713A.964.964 0 0 1 6 6h8c.283 0 .521.096.713.288.192.192.288.43.287.712a.968.968 0 0 1-.288.713A.964.964 0 0 1 14 8H6z"/></svg>