<svg xmlns="http://www.w3.org/2000/svg" viewBox="0 0 20 20"><path d="M17.69 16.378A9.988 9.988 0 0 0 13.395.593 10.007 10.007 0 0 0 1.124 5.39 9.985 9.985 0 0 0 0 10c0 2.333.823 4.591 2.324 6.378l-.014.013c.05.06.107.111.158.17.065.074.134.143.2.215.2.217.406.425.622.62.066.06.134.117.2.174.23.197.464.384.708.558.031.022.06.05.091.072v-.009a9.942 9.942 0 0 0 11.437 0v.009c.032-.023.06-.05.092-.072.243-.175.479-.361.707-.558.067-.057.135-.114.2-.173a9.96 9.96 0 0 0 .622-.621c.067-.072.136-.141.2-.215.051-.059.11-.11.16-.171l-.017-.012zM10.008 4.287A3.219 3.219 0 0 1 12.98 6.27a3.212 3.212 0 0 1-2.344 4.382A3.219 3.219 0 0 1 6.79 7.501a3.213 3.213 0 0 1 3.216-3.214zM4.638 16.673a.819.819 0 0 1-.31-.746 3.567 3.567 0 0 1 3.535-3.07h4.288a3.573 3.573 0 0 1 3.535 3.07.819.819 0 0 1-.31.746 8.539 8.539 0 0 1-10.738 0z"/></svg>