<svg xmlns="http://www.w3.org/2000/svg" viewBox="0 0 32 32"><path d="M30.299 10.685l-8.453-.72a1 1 0 0 1-.833-.598l-3.296-7.61c-.635-1.484-2.804-1.484-3.44 0l-3.295 7.626a1 1 0 0 1-.835.6l-8.433.702C.07 10.813-.604 12.83.65 13.893l6.394 5.432a1 1 0 0 1 .325.994l-1.915 8.055c-.374 1.577 1.365 2.823 2.786 1.98l7.249-4.282a1 1 0 0 1 1.018.001l7.25 4.3c1.42.843 3.16-.404 2.785-1.98l-1.915-8.075a1 1 0 0 1 .326-.992l6.394-5.433c1.253-1.063.598-3.08-1.047-3.208zm-13.792 11.96a1 1 0 0 0-1.02 0l-4.49 2.659c-.76.45-1.687-.234-1.483-1.093l1.323-5.552-4.378-3.725c-.678-.575-.323-1.682.563-1.758l5.2-.442a1 1 0 0 0 .834-.601l2.024-4.706c.347-.806 1.49-.806 1.837 0l2.04 4.725a1 1 0 0 0 .833.6l5.201.443c.886.075 1.24 1.182.564 1.758l-3.912 3.327a1 1 0 0 0-.325.994l1.18 4.953c.205.86-.723 1.543-1.483 1.092l-4.508-2.673z"/></svg>